<?xml version="1.0" encoding="utf-8"?>
<!-- Generator: Adobe Illustrator 19.2.1, SVG Export Plug-In . SVG Version: 6.00 Build 0)  -->
<svg version="1.1" id="Layer_1" xmlns="http://www.w3.org/2000/svg" xmlns:xlink="http://www.w3.org/1999/xlink" x="0px" y="0px"
	 viewBox="0 0 600 200" style="enable-background:new 0 0 600 200;" xml:space="preserve">
<style type="text/css">
	.st0{fill:#F4511E;}
	.st1{fill:#FFFFFF;}
</style>
<path class="st0" d="M68.5,183.1L68.5,183.1c-5.9,0-10.6-4.8-10.6-10.6V23.7c0-5.9,4.8-10.6,10.6-10.6h0c5.9,0,10.6,4.8,10.6,10.6
	v148.8C79.2,178.4,74.4,183.1,68.5,183.1z"/>
<path class="st1" d="M228,183.1L228,183.1c-5.9,0-10.6-4.8-10.6-10.6V23.7c0-5.9,4.8-10.6,10.6-10.6h0c5.9,0,10.6,4.8,10.6,10.6
	v148.8C238.6,178.4,233.9,183.1,228,183.1z"/>
<path class="st0" d="M234.6,180.8L234.6,180.8c-4.6,3.7-11.3,2.9-14.9-1.7l-79.4-99.8c-3.7-4.6-2.9-11.3,1.7-14.9l0,0
	c4.6-3.7,11.3-2.9,14.9,1.7l79.4,99.8C240,170.5,239.2,177.2,234.6,180.8z"/>
<path class="st1" d="M61.9,180.8L61.9,180.8c-4.6-3.7-5.4-10.3-1.7-14.9L139.6,66c3.7-4.6,10.3-5.4,14.9-1.7l0,0
	c4.6,3.7,5.4,10.3,1.7,14.9l-79.4,99.8C73.2,183.7,66.5,184.5,61.9,180.8z"/>
<path class="st0" d="M365.5,90.2c-3.5,0-6.5,2.9-6.5,6.4v8.2c-5-8.9-18.3-14.6-31.6-14.6c-25.7,0-45.4,20.8-45.4,46.5
	s19.2,46.5,44.9,46.5c13.3,0,27.1-5.6,32.1-14.6v8.2c0,3.5,3,6.4,6.5,6.4s6.5-2.9,6.5-6.4V96.6C372,93,369,90.2,365.5,90.2z
	 M329.5,170.4c-18.6,0-33.7-15.1-33.7-33.7s15.1-33.7,33.7-33.7s33.7,15.1,33.7,33.7S348.1,170.4,329.5,170.4z"/>
<path class="st1" d="M427.2,183.3L427.2,183.3c-3.4,0-6.1-2.7-6.1-6.1V67.9c0-3.4,2.7-6.1,6.1-6.1l0,0c3.4,0,6.1,2.7,6.1,6.1v109.4
	C433.2,180.6,430.5,183.3,427.2,183.3z"/>
<path class="st0" d="M542.9,74h-10.2c-0.6,0-1-0.4-1-1V62.8c0-0.6,0.4-1,1-1h10.2c0.6,0,1,0.4,1,1V73C543.9,73.5,543.5,74,542.9,74z
	"/>
<path class="st0" d="M483.4,183.3L483.4,183.3c-3.4,0-6.1-2.7-6.1-6.1V67.9c0-3.4,2.7-6.1,6.1-6.1h0c3.4,0,6.1,2.7,6.1,6.1v109.4
	C489.4,180.6,486.7,183.3,483.4,183.3z"/>
<path class="st1" d="M537.8,183.1L537.8,183.1c-3.4,0-6.1-2.7-6.1-6.1V92c0-3.4,2.7-6.1,6.1-6.1l0,0c3.4,0,6.1,2.7,6.1,6.1v85.1
	C543.9,180.4,541.2,183.1,537.8,183.1z"/>
</svg>
